#!OML:ASF E:\motion texture\Top Level 1\Subject 1\Session 1\male.ASF
:FULLY-SPECIFIED
:DEGREES
260
root 21.9464 17.8255 5.32666 445.398 -84.4247 -440.23
lowerback -3.5592 -1.61583 5.87515
upperback -2.72325 -2.45726 4.77253
thorax -0.845032 -1.34199 1.56241
lowerneck -17.413 -2.30975 -6.66899
upperneck 35.1927 -3.01576 1.73616
head 15.4132 -2.34028 1.24541
rclavicle 1.05356e-014 -9.38264e-014
rhumerus -25.2719 7.39201 -89.9019
rradius 39.9379
rwrist -27.9745
rhand 0.843245 -46.8499
rfingers 7.12502
rthumb 26.3978 -75.0321
lclavicle 1.05356e-014 -9.38264e-014
lhumerus -20.2208 2.46982 91.1865
lradius 52.5381
lwrist 6.27709
lhand -12.9239 30.664
lfingers 7.12502
lthumb 13.1666 60.2283
rfemur -19.1182 4.43538 27.8932
rtibia 18.8245
rfoot -2.03332 -9.92464
rtoes 20.0756
lfemur -12.9873 0.0497611 -11.2946
ltibia 52.7259
lfoot 4.73658 -3.00157
ltoes -15.29
261
root 21.8169 17.8394 5.31001 447.762 -84.2704 -442.675
lowerback -3.56254 -1.54138 6.09304
upperback -2.75183 -2.3652 4.7779
thorax -0.880402 -1.30129 1.45052
lowerneck -17.3677 -2.27344 -6.6233
upperneck 35.2906 -2.98668 1.71569
head 15.4465 -2.33111 1.23367
rclavicle 8.72168e-015 -1.74931e-014
rhumerus -24.8586 9.07881 -90.5099
rradius 41.9606
rwrist -28.632
rhand 1.71514 -46.196
rfingers 7.12502
rthumb 27.2321 -74.2502
lclavicle 8.72168e-015 -1.74931e-014
lhumerus -19.7657 2.29139 91.2672
lradius 52.8247
lwrist 6.45483
lhand -12.7991 30.5448
lfingers 7.12502
lthumb 13.2868 60.1013
rfemur -18.3419 4.53251 28.2623
rtibia 18.4883
rfoot -2.3023 -9.75089
rtoes 20.1888
lfemur -13.9178 0.37783 -11.0323
ltibia 53.5051
lfoot 4.57298 -2.75128
ltoes -15.1457
262
root 21.6883 17.8528 5.29373 449.998 -84.1169 -444.989
lowerback -3.566 -1.4643 6.30191
upperback -2.78012 -2.26913 4.77736
thorax -0.914587 -1.25849 1.33758
lowerneck -17.3205 -2.23359 -6.57241
upperneck 35.3745 -2.95458 1.70115
head 15.4724 -2.31841 1.22421
rclavicle -1.62258e-014 7.95139e-015
rhumerus -24.4698 10.6271 -91.0252
rradius 43.97
rwrist -29.1591
rhand 2.57104 -45.4865
rfingers 7.12502
rthumb 28.0506 -73.4096
lclavicle -1.62258e-014 7.95139e-015
lhumerus -19.3027 2.11872 91.3299
lradius 53.137
lwrist 6.62928
lhand -12.6673 30.4141
lfingers 7.12502
lthumb 13.4139 59.9622
rfemur -17.5694 4.62201 28.6144
rtibia 18.146
rfoot -2.57078 -9.57938
rtoes 20.2763
lfemur -14.8369 0.697725 -10.7897
ltibia 54.18
lfoot 4.34198 -2.48822
ltoes -15.0039
263
root 21.5604 17.8657 5.27781 452.12 -83.9655 -447.184
lowerback -3.57049 -1.38445 6.50072
upperback -2.80827 -2.16892 4.77072
thorax -0.94715 -1.2135 1.22395
lowerneck -17.2723 -2.19007 -6.51697
upperneck 35.4441 -2.91954 1.69439
head 15.491 -2.302 1.21792
rclavicle -1.72446e-014 2.70347e-014
rhumerus -24.1034 12.0431 -91.4584
rradius 45.9596
rwrist -29.5675
rhand 3.39896 -44.7349
rfingers 7.12502
rthumb 28.8417 -72.5258
lclavicle -1.72446e-014 2.70347e-014
lhumerus -18.8325 1.95338 91.3748
lradius 53.4738
lwrist 6.80019
lhand -12.5265 30.2742
lfingers 7.12502
lthumb 13.5496 59.8133
rfemur -16.8031 4.70723 28.9486
rtibia 17.8005
rfoot -2.83908 -9.41621
rtoes 20.3392
lfemur -15.7421 1.00798 -10.5668
ltibia 54.7457
lfoot 4.0467 -2.21184
ltoes -14.8581
264
root 21.4333 17.8781 5.26225 454.137 -83.8172 -449.268
lowerback -3.5769 -1.3026 6.68918
upperback -2.83634 -2.06569 4.7583
thorax -0.97764 -1.16684 1.11007
lowerneck -17.2219 -2.14215 -6.45606
upperneck 35.4984 -2.88013 1.69352
head 15.5014 -2.28139 1.21411
rclavicle -1.22253e-014 4.21423e-014
rhumerus -23.7589 13.337 -91.8197
rradius 47.922
rwrist -29.8714
rhand 4.18619 -43.9537
rfingers 7.12502
rthumb 29.5934 -71.6138
lclavicle -1.22253e-014 4.21423e-014
lhumerus -18.3568 1.7978 91.4019
lradius 53.8345
lwrist 6.9708
lhand -12.3783 30.1265
lfingers 7.12502
lthumb 13.6925 59.656
rfemur -16.0459 4.78721 29.2641
rtibia 17.4558
rfoot -3.10747 -9.26031
rtoes 20.38
lfemur -16.6293 1.30706 -10.3633
ltibia 55.1963
lfoot 3.69262 -1.92243
ltoes -14.714
265
root 21.3069 17.8898 5.24705 456.054 -83.6726 -451.247
lowerback -3.58557 -1.21893 6.86594
upperback -2.86343 -1.95974 4.74058
thorax -1.00487 -1.1186 0.997108
lowerneck -17.1728 -2.0903 -6.38983
upperneck 35.5382 -2.83662 1.6988
head 15.5048 -2.25662 1.21285
rclavicle 4.87022e-015 0
rhumerus -23.434 14.5145 -92.1159
rradius 49.8512
rwrist -30.0771
rhand 4.93205 -43.1612
rfingers 7.12502
rthumb 30.3052 -70.6927
lclavicle 4.87022e-015 0
lhumerus -17.8743 1.65147 91.4127
lradius 54.2179
lwrist 7.14376
lhand -12.2245 29.9756
lfingers 7.12502
lthumb 13.8406 59.4951
rfemur -15.2978 4.86261 29.5607
rtibia 17.1128
rfoot -3.37659 -9.10985
rtoes 20.4012
lfemur -17.4956 1.59175 -10.1785
ltibia 55.5297
lfoot 3.28373 -1.61955
ltoes -14.5676
266
root 21.1811 17.901 5.23223 457.884 -83.5323 -453.134
lowerback -3.59615 -1.13374 7.03109
upperback -2.89057 -1.85142 4.71785
thorax -1.0301 -1.06897 0.885382
lowerneck -17.1235 -2.03377 -6.31756
upperneck 35.5641 -2.78819 1.70948
head 15.501 -2.22744 1.21383
rclavicle 9.24349e-015 -4.21423e-014
rhumerus -23.1304 15.5843 -92.3558
rradius 51.7402
rwrist -30.1962
rhand 5.62354 -42.3657
rfingers 7.12502
rthumb 30.9645 -69.7739
lclavicle 9.24349e-015 -4.21423e-014
lhumerus -17.3893 1.51709 91.4077
lradius 54.6238
lwrist 7.32192
lhand -12.0655 29.8208
lfingers 7.12502
lthumb 13.9938 59.3298
rfemur -14.5605 4.93179 29.8388
rtibia 16.7738
rfoot -3.64637 -8.96106
rtoes 20.4048
lfemur -18.3376 1.86073 -10.0115
ltibia 55.7429
lfoot 2.82638 -1.30363
ltoes -14.4102
267
root 21.056 17.9115 5.21785 459.648 -83.3951 -454.948
lowerback -3.60779 -1.04653 7.1873
upperback -2.91696 -1.7401 4.69003
thorax -1.05305 -1.01767 0.773345
lowerneck -17.0748 -1.97298 -6.24056
upperneck 35.5742 -2.73517 1.72704
head 15.4894 -2.19382 1.21785
rclavicle -1.21259e-014 1.35174e-014
rhumerus -22.8459 16.5511 -92.5457
rradius 53.5807
rwrist -30.2327
rhand 6.26818 -41.5781
rfingers 7.12502
rthumb 31.5788 -68.8676
lclavicle -1.21259e-014 1.35174e-014
lhumerus -16.8997 1.39345 91.3867
lradius 55.05
lwrist 7.50695
lhand -11.9 29.6639
lfingers 7.12502
lthumb 14.1534 59.1618
rfemur -13.8366 4.99527 30.0995
rtibia 16.4415
rfoot -3.91428 -8.81338
rtoes 20.3945
lfemur -19.1535 2.11462 -9.85995
ltibia 55.8341
lfoot 2.32726 -0.974612
ltoes -14.2621
268
root 20.9313 17.9213 5.20383 461.345 -83.2637 -456.691
lowerback -3.62148 -0.958371 7.3304
upperback -2.94436 -1.62711 4.65749
thorax -1.0749 -0.965326 0.663666
lowerneck -17.0267 -1.90684 -6.15857
upperneck 35.5729 -2.67652 1.75128
head 15.4722 -2.15556 1.22491
rclavicle -3.72721e-015 6.36111e-015
rhumerus -22.5849 17.4235 -92.6935
rradius 55.3685
rwrist -30.2003
rhand 6.85172 -40.8125
rfingers 7.12502
rthumb 32.1345 -67.9914
lclavicle -3.72721e-015 6.36111e-015
lhumerus -16.4106 1.28468 91.3512
lradius 55.4957
lwrist 7.70218
lhand -11.7298 29.5152
lfingers 7.12502
lthumb 14.3174 59.0016
rfemur -13.1255 5.05325 30.341
rtibia 16.1166
rfoot -4.18144 -8.66815
rtoes 20.3736
lfemur -19.9405 2.35077 -9.7253
ltibia 55.8033
lfoot 1.79177 -0.633193
ltoes -14.1261
